<svg width="50" height="50" viewBox="0 0 50 50" fill="none" xmlns="http://www.w3.org/2000/svg">
<path d="M36.6666 11.6665H40M15 1.6665H35C42.3638 1.6665 48.3333 7.63604 48.3333 14.9998V34.9998C48.3333 42.3636 42.3638 48.3332 35 48.3332H15C7.63616 48.3332 1.66663 42.3636 1.66663 34.9998V14.9998C1.66663 7.63604 7.63616 1.6665 15 1.6665ZM25 34.9998C19.4771 34.9998 15 30.5227 15 24.9998C15 19.477 19.4771 14.9998 25 14.9998C30.5228 14.9998 35 19.477 35 24.9998C35 30.5227 30.5228 34.9998 25 34.9998Z" stroke="white" stroke-width="2"/>
</svg>
