<svg width="40" height="40" viewBox="0 0 40 40" fill="none" xmlns="http://www.w3.org/2000/svg">
<path d="M15.515 17.3858H24.485M20 3.75C18.2093 3.74989 16.4361 4.10252 14.7817 4.78774C13.1272 5.47297 11.624 6.47737 10.3578 7.7436C9.09154 9.00982 8.08714 10.5131 7.40191 12.1675C6.71668 13.8219 6.36406 15.5951 6.36417 17.3858C6.36444 21.5647 7.68233 25.6371 10.1304 29.0238C12.5785 32.4105 16.0321 34.9391 20 36.25V31.0208C23.5979 30.9927 27.0388 29.5437 29.573 26.9896C32.1072 24.4356 33.5292 20.9834 33.5292 17.3854C33.5292 13.7874 32.1072 10.3353 29.573 7.78119C27.0388 5.22711 23.5979 3.77813 20 3.75V3.75ZM20 21.8708V12.9V21.8708Z" stroke="#333333" stroke-width="2" stroke-linecap="round" stroke-linejoin="round"/>
</svg>
