<svg width="40" height="40" viewBox="0 0 40 40" fill="none" xmlns="http://www.w3.org/2000/svg">
<path d="M35 12.5H27.5V7.5C27.5 6.83696 27.2366 6.20107 26.7678 5.73223C26.2989 5.26339 25.663 5 25 5H15C14.337 5 13.7011 5.26339 13.2322 5.73223C12.7634 6.20107 12.5 6.83696 12.5 7.5V12.5H5C4.33696 12.5 3.70107 12.7634 3.23223 13.2322C2.76339 13.7011 2.5 14.337 2.5 15V32.5C2.5 33.163 2.76339 33.7989 3.23223 34.2678C3.70107 34.7366 4.33696 35 5 35H35C35.663 35 36.2989 34.7366 36.7678 34.2678C37.2366 33.7989 37.5 33.163 37.5 32.5V15C37.5 14.337 37.2366 13.7011 36.7678 13.2322C36.2989 12.7634 35.663 12.5 35 12.5ZM15 7.5H25V12.5H15V7.5ZM5 32.5V15H35V32.5H5Z" fill="#333333"/>
</svg>
