<svg width="40" height="40" viewBox="0 0 40 40" fill="none" xmlns="http://www.w3.org/2000/svg">
<path d="M25.5 18.5C25.1022 18.5 24.7206 18.342 24.4393 18.0607C24.158 17.7794 24 17.3978 24 17C24 16.6022 24.158 16.2206 24.4393 15.9393C24.7206 15.658 25.1022 15.5 25.5 15.5C25.8978 15.5 26.2794 15.658 26.5607 15.9393C26.842 16.2206 27 16.6022 27 17C27 17.3978 26.842 17.7794 26.5607 18.0607C26.2794 18.342 25.8978 18.5 25.5 18.5ZM25.5 24.5C25.1022 24.5 24.7206 24.342 24.4393 24.0607C24.158 23.7794 24 23.3978 24 23C24 22.6022 24.158 22.2206 24.4393 21.9393C24.7206 21.658 25.1022 21.5 25.5 21.5C25.8978 21.5 26.2794 21.658 26.5607 21.9393C26.842 22.2206 27 22.6022 27 23C27 23.3978 26.842 23.7794 26.5607 24.0607C26.2794 24.342 25.8978 24.5 25.5 24.5ZM24 29C24 29.3978 24.158 29.7794 24.4393 30.0607C24.7206 30.342 25.1022 30.5 25.5 30.5C25.8978 30.5 26.2794 30.342 26.5607 30.0607C26.842 29.7794 27 29.3978 27 29C27 28.6022 26.842 28.2206 26.5607 27.9393C26.2794 27.658 25.8978 27.5 25.5 27.5C25.1022 27.5 24.7206 27.658 24.4393 27.9393C24.158 28.2206 24 28.6022 24 29ZM22 17C22 16.7348 21.8946 16.4804 21.7071 16.2929C21.5196 16.1054 21.2652 16 21 16H14C13.7348 16 13.4804 16.1054 13.2929 16.2929C13.1054 16.4804 13 16.7348 13 17C13 17.2652 13.1054 17.5196 13.2929 17.7071C13.4804 17.8946 13.7348 18 14 18H21C21.2652 18 21.5196 17.8946 21.7071 17.7071C21.8946 17.5196 22 17.2652 22 17ZM22 23C22 22.7348 21.8946 22.4804 21.7071 22.2929C21.5196 22.1054 21.2652 22 21 22H14C13.7348 22 13.4804 22.1054 13.2929 22.2929C13.1054 22.4804 13 22.7348 13 23C13 23.2652 13.1054 23.5196 13.2929 23.7071C13.4804 23.8946 13.7348 24 14 24H21C21.2652 24 21.5196 23.8946 21.7071 23.7071C21.8946 23.5196 22 23.2652 22 23ZM22 29C22 28.7348 21.8946 28.4804 21.7071 28.2929C21.5196 28.1054 21.2652 28 21 28H14C13.7348 28 13.4804 28.1054 13.2929 28.2929C13.1054 28.4804 13 28.7348 13 29C13 29.2652 13.1054 29.5196 13.2929 29.7071C13.4804 29.8946 13.7348 30 14 30H21C21.2652 30 21.5196 29.8946 21.7071 29.7071C21.8946 29.5196 22 29.2652 22 29ZM17 4C16.3793 3.99968 15.7739 4.19186 15.267 4.55006C14.7602 4.90826 14.3769 5.41484 14.17 6H11C10.2044 6 9.44129 6.31607 8.87868 6.87868C8.31607 7.44129 8 8.20435 8 9V33C8 33.7956 8.31607 34.5587 8.87868 35.1213C9.44129 35.6839 10.2044 36 11 36H29C29.7956 36 30.5587 35.6839 31.1213 35.1213C31.6839 34.5587 32 33.7956 32 33V9C32 8.20435 31.6839 7.44129 31.1213 6.87868C30.5587 6.31607 29.7956 6 29 6H25.83C25.6231 5.41484 25.2398 4.90826 24.733 4.55006C24.2261 4.19186 23.6207 3.99968 23 4H17ZM16 7C16 6.73478 16.1054 6.48043 16.2929 6.29289C16.4804 6.10536 16.7348 6 17 6H23C23.2652 6 23.5196 6.10536 23.7071 6.29289C23.8946 6.48043 24 6.73478 24 7C24 7.26522 23.8946 7.51957 23.7071 7.70711C23.5196 7.89464 23.2652 8 23 8H17C16.7348 8 16.4804 7.89464 16.2929 7.70711C16.1054 7.51957 16 7.26522 16 7ZM11 8H14.17C14.3769 8.58516 14.7602 9.09174 15.267 9.44994C15.7739 9.80814 16.3793 10.0003 17 10H23C23.6207 10.0003 24.2261 9.80814 24.733 9.44994C25.2398 9.09174 25.6231 8.58516 25.83 8H29C29.2652 8 29.5196 8.10536 29.7071 8.29289C29.8946 8.48043 30 8.73478 30 9V33C30 33.2652 29.8946 33.5196 29.7071 33.7071C29.5196 33.8946 29.2652 34 29 34H11C10.7348 34 10.4804 33.8946 10.2929 33.7071C10.1054 33.5196 10 33.2652 10 33V9C10 8.73478 10.1054 8.48043 10.2929 8.29289C10.4804 8.10536 10.7348 8 11 8Z" fill="#333333"/>
</svg>
