<svg width="102" height="58" viewBox="0 0 102 58" fill="none" xmlns="http://www.w3.org/2000/svg">
<path d="M23.904 44.088V48H4.392V13.608H9.024V44.088H23.904ZM36.5539 23.304C38.3299 23.304 39.9299 23.6 41.3539 24.192C42.7779 24.784 43.9939 25.624 45.0019 26.712C46.0099 27.8 46.7779 29.12 47.3059 30.672C47.8499 32.208 48.1219 33.928 48.1219 35.832C48.1219 37.752 47.8499 39.48 47.3059 41.016C46.7779 42.552 46.0099 43.864 45.0019 44.952C43.9939 46.04 42.7779 46.88 41.3539 47.472C39.9299 48.048 38.3299 48.336 36.5539 48.336C34.7619 48.336 33.1459 48.048 31.7059 47.472C30.2819 46.88 29.0659 46.04 28.0579 44.952C27.0499 43.864 26.2739 42.552 25.7299 41.016C25.2019 39.48 24.9379 37.752 24.9379 35.832C24.9379 33.928 25.2019 32.208 25.7299 30.672C26.2739 29.12 27.0499 27.8 28.0579 26.712C29.0659 25.624 30.2819 24.784 31.7059 24.192C33.1459 23.6 34.7619 23.304 36.5539 23.304ZM36.5539 45C38.9539 45 40.7459 44.2 41.9299 42.6C43.1139 40.984 43.7059 38.736 43.7059 35.856C43.7059 32.96 43.1139 30.704 41.9299 29.088C40.7459 27.472 38.9539 26.664 36.5539 26.664C35.3379 26.664 34.2739 26.872 33.3619 27.288C32.4659 27.704 31.7139 28.304 31.1059 29.088C30.5139 29.872 30.0659 30.84 29.7619 31.992C29.4739 33.128 29.3299 34.416 29.3299 35.856C29.3299 38.736 29.9219 40.984 31.1059 42.6C32.3059 44.2 34.1219 45 36.5539 45ZM61.8716 36.12C62.7356 36.12 63.4956 36 64.1516 35.76C64.8076 35.52 65.3596 35.184 65.8076 34.752C66.2556 34.32 66.5916 33.808 66.8156 33.216C67.0396 32.608 67.1516 31.944 67.1516 31.224C67.1516 29.736 66.6956 28.552 65.7836 27.672C64.8876 26.792 63.5836 26.352 61.8716 26.352C60.1436 26.352 58.8236 26.792 57.9116 27.672C57.0156 28.552 56.5676 29.736 56.5676 31.224C56.5676 31.944 56.6796 32.608 56.9036 33.216C57.1436 33.808 57.4876 34.32 57.9356 34.752C58.3836 35.184 58.9356 35.52 59.5916 35.76C60.2476 36 61.0076 36.12 61.8716 36.12ZM69.5756 49.32C69.5756 48.728 69.4076 48.248 69.0716 47.88C68.7356 47.512 68.2796 47.224 67.7036 47.016C67.1436 46.808 66.4876 46.664 65.7356 46.584C64.9836 46.488 64.1836 46.416 63.3356 46.368C62.5036 46.32 61.6556 46.272 60.7916 46.224C59.9276 46.176 59.0956 46.096 58.2956 45.984C57.3996 46.4 56.6636 46.928 56.0876 47.568C55.5276 48.192 55.2476 48.928 55.2476 49.776C55.2476 50.32 55.3836 50.824 55.6556 51.288C55.9436 51.768 56.3756 52.176 56.9516 52.512C57.5276 52.864 58.2476 53.136 59.1116 53.328C59.9916 53.536 61.0236 53.64 62.2076 53.64C63.3596 53.64 64.3916 53.536 65.3036 53.328C66.2156 53.12 66.9836 52.824 67.6076 52.44C68.2476 52.056 68.7356 51.6 69.0716 51.072C69.4076 50.544 69.5756 49.96 69.5756 49.32ZM73.9196 24.648V26.232C73.9196 26.76 73.5836 27.096 72.9116 27.24L70.1516 27.6C70.6956 28.656 70.9676 29.824 70.9676 31.104C70.9676 32.288 70.7356 33.368 70.2716 34.344C69.8236 35.304 69.1996 36.128 68.3996 36.816C67.5996 37.504 66.6396 38.032 65.5196 38.4C64.3996 38.768 63.1836 38.952 61.8716 38.952C60.7356 38.952 59.6636 38.816 58.6556 38.544C58.1436 38.864 57.7516 39.208 57.4796 39.576C57.2076 39.928 57.0716 40.288 57.0716 40.656C57.0716 41.232 57.3036 41.672 57.7676 41.976C58.2476 42.264 58.8716 42.472 59.6396 42.6C60.4076 42.728 61.2796 42.808 62.2556 42.84C63.2476 42.872 64.2556 42.928 65.2796 43.008C66.3196 43.072 67.3276 43.192 68.3036 43.368C69.2956 43.544 70.1756 43.832 70.9436 44.232C71.7116 44.632 72.3276 45.184 72.7916 45.888C73.2716 46.592 73.5116 47.504 73.5116 48.624C73.5116 49.664 73.2476 50.672 72.7196 51.648C72.2076 52.624 71.4636 53.488 70.4876 54.24C69.5116 55.008 68.3116 55.616 66.8876 56.064C65.4796 56.528 63.8876 56.76 62.1116 56.76C60.3356 56.76 58.7836 56.584 57.4556 56.232C56.1276 55.88 55.0236 55.408 54.1436 54.816C53.2636 54.224 52.5996 53.536 52.1516 52.752C51.7196 51.984 51.5036 51.176 51.5036 50.328C51.5036 49.128 51.8796 48.112 52.6316 47.28C53.3836 46.448 54.4156 45.784 55.7276 45.288C55.0076 44.968 54.4316 44.544 53.9996 44.016C53.5836 43.472 53.3756 42.744 53.3756 41.832C53.3756 41.48 53.4396 41.12 53.5676 40.752C53.6956 40.368 53.8876 39.992 54.1436 39.624C54.4156 39.24 54.7436 38.88 55.1276 38.544C55.5116 38.208 55.9596 37.912 56.4716 37.656C55.2716 36.984 54.3356 36.096 53.6636 34.992C52.9916 33.872 52.6556 32.576 52.6556 31.104C52.6556 29.92 52.8796 28.848 53.3276 27.888C53.7916 26.912 54.4316 26.088 55.2476 25.416C56.0636 24.728 57.0316 24.2 58.1516 23.832C59.2876 23.464 60.5276 23.28 61.8716 23.28C62.9276 23.28 63.9116 23.4 64.8236 23.64C65.7356 23.864 66.5676 24.2 67.3196 24.648H73.9196ZM88.2101 23.304C89.9861 23.304 91.5861 23.6 93.0101 24.192C94.4341 24.784 95.6501 25.624 96.6581 26.712C97.6661 27.8 98.4341 29.12 98.9621 30.672C99.5061 32.208 99.7781 33.928 99.7781 35.832C99.7781 37.752 99.5061 39.48 98.9621 41.016C98.4341 42.552 97.6661 43.864 96.6581 44.952C95.6501 46.04 94.4341 46.88 93.0101 47.472C91.5861 48.048 89.9861 48.336 88.2101 48.336C86.4181 48.336 84.8021 48.048 83.3621 47.472C81.9381 46.88 80.7221 46.04 79.7141 44.952C78.7061 43.864 77.9301 42.552 77.3861 41.016C76.8581 39.48 76.5941 37.752 76.5941 35.832C76.5941 33.928 76.8581 32.208 77.3861 30.672C77.9301 29.12 78.7061 27.8 79.7141 26.712C80.7221 25.624 81.9381 24.784 83.3621 24.192C84.8021 23.6 86.4181 23.304 88.2101 23.304ZM88.2101 45C90.6101 45 92.4021 44.2 93.5861 42.6C94.7701 40.984 95.3621 38.736 95.3621 35.856C95.3621 32.96 94.7701 30.704 93.5861 29.088C92.4021 27.472 90.6101 26.664 88.2101 26.664C86.9941 26.664 85.9301 26.872 85.0181 27.288C84.1221 27.704 83.3701 28.304 82.7621 29.088C82.1701 29.872 81.7221 30.84 81.4181 31.992C81.1301 33.128 80.9861 34.416 80.9861 35.856C80.9861 38.736 81.5781 40.984 82.7621 42.6C83.9621 44.2 85.7781 45 88.2101 45Z" fill="#E68854"/>
</svg>
