<svg width="180" height="180" viewBox="0 0 180 180" fill="none" xmlns="http://www.w3.org/2000/svg">
<path d="M18 102L17.2106 101.386C16.901 101.784 16.9363 102.351 17.2929 102.707L18 102ZM78 18.0001L77.2929 18.7072L78 18.0001ZM102 42.0001L102.707 42.7072L103.414 42.0001L102.707 41.293L102 42.0001ZM78 66.0001L77.2929 66.7072L78 67.4143L78.7071 66.7072L78 66.0001ZM54 42.0001L53.2929 42.7072L54 42.0001ZM91.6364 52.3637L92.3435 53.0708L91.6364 52.3637ZM88.3636 55.6365L87.6565 54.9294L88.3636 55.6365ZM91.6364 124.364L90.9293 123.657L91.6364 124.364ZM160.364 55.6365L159.657 54.9294L160.364 55.6365ZM160.364 52.3637L159.657 53.0709L160.364 52.3637ZM88.3636 124.364L89.0707 123.657L88.3636 124.364ZM24 175H156V173H24V175ZM90.7071 173.293L18.7071 101.293L17.2929 102.707L89.2929 174.707L90.7071 173.293ZM18.7894 102.614L60.7894 48.614L59.2106 47.3862L17.2106 101.386L18.7894 102.614ZM77.2929 18.7072L101.293 42.7072L102.707 41.293L78.7071 17.293L77.2929 18.7072ZM101.293 41.293L77.2929 65.293L78.7071 66.7072L102.707 42.7072L101.293 41.293ZM78.7071 65.293L54.7071 41.293L53.2929 42.7072L77.2929 66.7072L78.7071 65.293ZM54.7071 18.7072C60.944 12.4703 71.056 12.4703 77.2929 18.7072L78.7071 17.293C71.6892 10.2751 60.3108 10.2751 53.2929 17.293L54.7071 18.7072ZM53.2929 17.293C46.275 24.3109 46.275 35.6893 53.2929 42.7072L54.7071 41.293C48.4702 35.0561 48.4702 24.9441 54.7071 18.7072L53.2929 17.293ZM90.9293 51.6566L87.6565 54.9294L89.0707 56.3436L92.3435 53.0708L90.9293 51.6566ZM92.3435 125.071L161.071 56.3436L159.657 54.9294L90.9293 123.657L92.3435 125.071ZM161.071 56.3436C162.365 55.0493 162.365 52.9509 161.071 51.6566L159.657 53.0709C160.17 53.5841 160.17 54.4161 159.657 54.9294L161.071 56.3436ZM87.6565 125.071C88.9508 126.365 91.0492 126.365 92.3435 125.071L90.9293 123.657C90.416 124.17 89.584 124.17 89.0707 123.657L87.6565 125.071ZM87.6565 54.9294C68.2875 74.2984 68.2875 105.702 87.6565 125.071L89.0707 123.657C70.4828 105.069 70.4828 74.9316 89.0707 56.3436L87.6565 54.9294ZM92.3435 53.0708C110.931 34.4829 141.069 34.4829 159.657 53.0709L161.071 51.6566C141.702 32.2876 110.298 32.2876 90.9293 51.6566L92.3435 53.0708Z" fill="#B14C33"/>
</svg>
