<svg width="20" height="20" viewBox="0 0 20 20" fill="none" xmlns="http://www.w3.org/2000/svg">
<path d="M6.66675 7.33334H8.00008M12.0001 12.6667H13.3334M13.3334 6.66667L6.66675 13.3333M9.06869 1.05247L7.56333 2.55783C7.31631 2.80485 6.98127 2.94363 6.63193 2.94363H4.26089C3.53343 2.94363 2.9437 3.53335 2.9437 4.26082V6.63186C2.9437 6.9812 2.80493 7.31623 2.55791 7.56325L1.05254 9.06861C0.53815 9.58301 0.538149 10.417 1.05254 10.9314L2.55791 12.4368C2.80493 12.6838 2.9437 13.0188 2.9437 13.3682V15.7392C2.9437 16.4667 3.53343 17.0564 4.26089 17.0564H6.63193C6.98127 17.0564 7.31631 17.1952 7.56333 17.4422L9.06869 18.9475C9.58308 19.4619 10.4171 19.4619 10.9315 18.9475L12.4368 17.4422C12.6839 17.1952 13.0189 17.0564 13.3682 17.0564H15.7393C16.4667 17.0564 17.0565 16.4667 17.0565 15.7392V13.3682C17.0565 13.0188 17.1952 12.6838 17.4423 12.4368L18.9476 10.9314C19.462 10.417 19.462 9.58301 18.9476 9.06861L17.4423 7.56325C17.1952 7.31623 17.0565 6.9812 17.0565 6.63186V4.26082C17.0565 3.53335 16.4667 2.94363 15.7393 2.94363H13.3682C13.0189 2.94363 12.6839 2.80485 12.4368 2.55783L10.9315 1.05247C10.4171 0.538073 9.58308 0.538073 9.06869 1.05247Z" stroke="#B14C33"/>
</svg>
