<svg width="20" height="20" viewBox="0 0 20 20" fill="none" xmlns="http://www.w3.org/2000/svg">
<path d="M4.66659 0V6.22876C4.66659 6.93601 4.94754 7.61429 5.44763 8.11438L6.39044 9.05719C6.91114 9.57789 6.91114 10.4221 6.39044 10.9428L5.05711 12.2761C4.80706 12.5262 4.66659 12.8653 4.66659 13.219V20M15.3333 0V6.78105C15.3333 7.13467 15.1928 7.47381 14.9427 7.72386L13.6094 9.05719C13.0887 9.57789 13.0887 10.4221 13.6094 10.9428L14.9427 12.2761C15.1928 12.5262 15.3333 12.8653 15.3333 13.219V20M1.33325 0.666667H18.6666M1.33325 19.3333H18.6666" stroke="#B14C33"/>
</svg>
