<svg width="180" height="180" viewBox="0 0 180 180" fill="none" xmlns="http://www.w3.org/2000/svg">
<path d="M42 0V56.0589C42 62.4241 44.5286 68.5286 49.0294 73.0294L57.5147 81.5147C62.201 86.201 62.201 93.799 57.5147 98.4853L45.5147 110.485C43.2643 112.736 42 115.788 42 118.971V180M138 0V61.0294C138 64.212 136.736 67.2643 134.485 69.5147L122.485 81.5147C117.799 86.201 117.799 93.799 122.485 98.4853L134.485 110.485C136.736 112.736 138 115.788 138 118.971V180M12 6H168M12 174H168" stroke="#B14C33" stroke-width="2"/>
</svg>
