<svg width="180" height="180" viewBox="0 0 180 180" fill="none" xmlns="http://www.w3.org/2000/svg">
<path d="M60 66H72M108 114H120M120 60L60 120M81.6174 9.47216L68.0692 23.0204C65.846 25.2436 62.8307 26.4926 59.6866 26.4926H38.3473C31.8001 26.4926 26.4926 31.8001 26.4926 38.3473V59.6866C26.4926 62.8307 25.2436 65.846 23.0204 68.0692L9.47217 81.6174C4.84261 86.247 4.84261 93.753 9.47216 98.3826L23.0204 111.931C25.2436 114.154 26.4926 117.169 26.4926 120.313V141.653C26.4926 148.2 31.8001 153.507 38.3473 153.507H59.6866C62.8307 153.507 65.846 154.756 68.0692 156.98L81.6174 170.528C86.247 175.157 93.753 175.157 98.3826 170.528L111.931 156.98C114.154 154.756 117.169 153.507 120.313 153.507H141.653C148.2 153.507 153.507 148.2 153.507 141.653V120.313C153.507 117.169 154.756 114.154 156.98 111.931L170.528 98.3826C175.157 93.753 175.157 86.247 170.528 81.6174L156.98 68.0692C154.756 65.846 153.507 62.8307 153.507 59.6866V38.3473C153.507 31.8001 148.2 26.4926 141.653 26.4926H120.313C117.169 26.4926 114.154 25.2436 111.931 23.0204L98.3826 9.47217C93.753 4.84261 86.247 4.84261 81.6174 9.47216Z" stroke="#B14C33" stroke-width="2"/>
</svg>
