<svg width="180" height="180" viewBox="0 0 180 180" fill="none" xmlns="http://www.w3.org/2000/svg">
<path d="M42 66L41.1563 65.4632L41 65.7088V66H42ZM74.3713 15.1309L75.2149 15.6678L74.3713 15.1309ZM106.375 33.2509L105.48 32.8037L106.375 33.2509ZM90 66L89.1056 65.5528C88.9506 65.8628 88.9671 66.231 89.1493 66.5258C89.3316 66.8206 89.6534 67 90 67V66ZM174 126L174.8 126.6L175 126.333V126H174ZM145.2 164.4L146 165L145.2 164.4ZM99.3789 9.22741L99.8934 8.36992V8.36992L99.3789 9.22741ZM5 60V180H7V60H5ZM42.8437 66.5369L75.2149 15.6678L73.5276 14.5941L41.1563 65.4632L42.8437 66.5369ZM105.48 32.8037L89.1056 65.5528L90.8944 66.4473L107.269 33.6981L105.48 32.8037ZM90 67H150V65H90V67ZM173 90V126H175V90H173ZM173.2 125.4L144.4 163.8L146 165L174.8 126.6L173.2 125.4ZM126 173H66V175H126V173ZM43 150V66H41V150H43ZM150 67C162.703 67 173 77.2975 173 90H175C175 76.1929 163.807 65 150 65V67ZM66 173C53.2975 173 43 162.703 43 150H41C41 163.807 52.1929 175 66 175V173ZM98.8644 10.0849C106.667 14.7662 109.549 24.6654 105.48 32.8037L107.269 33.6981C111.806 24.6251 108.592 13.5889 99.8934 8.36992L98.8644 10.0849ZM144.4 163.8C140.056 169.592 133.239 173 126 173V175C133.869 175 141.279 171.295 146 165L144.4 163.8ZM75.2149 15.6678C80.2822 7.70493 90.771 5.22885 98.8644 10.0849L99.8934 8.36992C90.8704 2.95611 79.1769 5.71659 73.5276 14.5941L75.2149 15.6678Z" fill="#B14C33"/>
</svg>
