<svg width="40" height="40" viewBox="0 0 40 40" fill="none" xmlns="http://www.w3.org/2000/svg">
<path d="M17.1667 11.2333C17.2783 11.3537 17.3651 11.4948 17.4222 11.6488C17.4793 11.8027 17.5055 11.9664 17.4993 12.1304C17.4931 12.2945 17.4546 12.4557 17.3861 12.6049C17.3176 12.7541 17.2204 12.8883 17.1 13L12.2533 17.5L17.1 22C17.2204 22.1116 17.3176 22.2458 17.3861 22.395C17.4546 22.5442 17.493 22.7054 17.4992 22.8695C17.5054 23.0335 17.4792 23.1972 17.4222 23.3511C17.3651 23.5051 17.2783 23.6462 17.1667 23.7666C17.055 23.887 16.9208 23.9842 16.7716 24.0527C16.6224 24.1212 16.4612 24.1597 16.2971 24.1658C16.1331 24.172 15.9694 24.1459 15.8155 24.0888C15.6616 24.0317 15.5204 23.9449 15.4 23.8333L9.56667 18.4166C9.44045 18.2996 9.33976 18.1578 9.27091 18.0001C9.20205 17.8423 9.1665 17.6721 9.1665 17.5C9.1665 17.3278 9.20205 17.1576 9.27091 16.9999C9.33976 16.8421 9.44045 16.7003 9.56667 16.5833L15.4 11.1666C15.5204 11.055 15.6616 10.9682 15.8155 10.9111C15.9694 10.854 16.1331 10.8278 16.2971 10.834C16.4612 10.8402 16.6224 10.8787 16.7716 10.9472C16.9208 11.0157 17.0551 11.1129 17.1667 11.2333ZM22.9 13C22.6569 12.7745 22.5133 12.4617 22.5008 12.1304C22.4883 11.7991 22.6079 11.4764 22.8333 11.2333C23.0588 10.9902 23.3715 10.8466 23.7029 10.8341C24.0342 10.8216 24.3569 10.9412 24.6 11.1666L30.4333 16.5833C30.5595 16.7003 30.6602 16.8421 30.7291 16.9999C30.798 17.1576 30.8335 17.3278 30.8335 17.5C30.8335 17.6721 30.798 17.8423 30.7291 18.0001C30.6602 18.1578 30.5595 18.2996 30.4333 18.4166L24.6 23.8333C24.3569 24.0587 24.0342 24.1783 23.7029 24.1658C23.3715 24.1533 23.0588 24.0097 22.8333 23.7666C22.6079 23.5235 22.4883 23.2008 22.5008 22.8695C22.5133 22.5382 22.6569 22.2254 22.9 22L27.7467 17.5L22.9 13Z" fill="#333333"/>
<path fill-rule="evenodd" clip-rule="evenodd" d="M2.5 7.08329C2.5 5.47329 3.80667 4.16663 5.41667 4.16663H34.5833C36.1933 4.16663 37.5 5.47329 37.5 7.08329V27.9166C37.5 28.6902 37.1927 29.432 36.6457 29.979C36.0987 30.526 35.3569 30.8333 34.5833 30.8333H18.4333L12.4783 36.7883C12.1387 37.1277 11.7061 37.3589 11.2352 37.4525C10.7642 37.5461 10.2761 37.498 9.8325 37.3143C9.38888 37.1306 9.00969 36.8195 8.74285 36.4203C8.47601 36.0211 8.3335 35.5518 8.33333 35.0716V30.8333H5.41667C4.64312 30.8333 3.90125 30.526 3.35427 29.979C2.80729 29.432 2.5 28.6902 2.5 27.9166V7.08329ZM5.41667 6.66663C5.30616 6.66663 5.20018 6.71052 5.12204 6.78866C5.0439 6.8668 5 6.97279 5 7.08329V27.9166C5 28.1466 5.18667 28.3333 5.41667 28.3333H9.58333C9.91485 28.3333 10.2328 28.465 10.4672 28.6994C10.7016 28.9338 10.8333 29.2518 10.8333 29.5833V34.9L17.0333 28.7C17.2675 28.4655 17.5853 28.3336 17.9167 28.3333H34.5833C34.6938 28.3333 34.7998 28.2894 34.878 28.2113C34.9561 28.1331 35 28.0271 35 27.9166V7.08329C35 6.97279 34.9561 6.8668 34.878 6.78866C34.7998 6.71052 34.6938 6.66663 34.5833 6.66663H5.41667Z" fill="#333333"/>
</svg>
