<svg width="40" height="40" viewBox="0 0 40 40" fill="none" xmlns="http://www.w3.org/2000/svg">
    <path d="M36.5877 15.2141L20.9291 0.712651C20.4201 0.241221 19.7498 -0.0139105 19.0582 0.000585557C18.3666 0.0150816 17.7074 0.298083 17.2183 0.790436L2.81697 15.2873L2.07791 16.0312V37.4026H15.9555V24.068H23.525V37.4026H37.4026V15.9687L36.5877 15.2141ZM19.1124 2.53996C19.1347 2.53996 19.121 2.5448 19.1114 2.55425C19.1016 2.5448 19.0902 2.53996 19.1124 2.53996ZM34.8794 34.8627H26.0482V24.068C26.0482 23.3944 25.7824 22.7484 25.3092 22.2721C24.836 21.7957 24.1942 21.5281 23.525 21.5281H15.9555C15.2863 21.5281 14.6445 21.7957 14.1713 22.2721C13.6981 22.7484 13.4323 23.3944 13.4323 24.068V34.8627H4.6011V17.0833L19.1124 2.58639C19.1135 2.58544 19.1136 2.58457 19.1143 2.58362L34.8794 17.0833V34.8627Z" fill="#333" />
</svg>